<svg version="1.1" id="Layer_1" xmlns="http://www.w3.org/2000/svg" xmlns:xlink="http://www.w3.org/1999/xlink" x="0px" y="0px"
	 width="100%" viewBox="0 0 592 592" enable-background="new 0 0 592 592" xml:space="preserve">
<path fill="#000000" opacity="1.000000" stroke="none" 
	d="
M341.000000,374.174194 
	C311.004120,374.175140 281.508209,374.190918 252.012329,374.167572 
	C242.303558,374.159882 233.582062,371.574493 226.865509,364.078766 
	C216.577316,352.597076 215.910110,336.794495 225.536285,324.773468 
	C228.197006,321.450775 228.795441,318.514496 227.888443,314.309265 
	C218.000732,268.465240 208.304382,222.579575 198.734085,176.668106 
	C197.721649,171.811157 195.930252,169.552094 190.579239,169.865707 
	C182.773819,170.323196 174.921127,170.034454 167.089813,169.949921 
	C164.944016,169.926758 162.724091,169.774704 160.675552,169.195724 
	C156.422394,167.993637 153.484039,163.421982 153.932434,159.223236 
	C154.408813,154.762360 157.862488,150.883530 162.457550,150.814240 
	C176.951324,150.595673 191.453232,150.571823 205.945923,150.822723 
	C210.608902,150.903473 213.422546,153.966003 214.406326,158.629181 
	C216.327454,167.735413 218.565750,176.782013 220.207794,185.936707 
	C221.006165,190.387604 222.806473,191.874283 227.412247,191.864578 
	C295.902405,191.720230 364.392944,191.763489 432.883423,191.763062 
	C434.383179,191.763046 435.885132,191.719528 437.382324,191.783508 
	C445.458588,192.128738 449.486969,197.215897 447.796783,205.170853 
	C442.510315,230.051910 437.140594,254.915268 431.819458,279.788971 
	C428.758270,294.098480 425.788055,308.427734 422.661072,322.722778 
	C420.987396,330.374146 418.381622,332.363861 410.569794,332.365326 
	C358.243744,332.375305 305.917694,332.367767 253.591660,332.389557 
	C251.437103,332.390472 249.218826,332.342285 247.140244,332.807983 
	C241.245834,334.128601 237.961029,338.592590 238.302979,344.397583 
	C238.629303,349.937347 242.803253,354.076874 248.729553,354.610535 
	C250.549194,354.774414 252.393082,354.684692 254.225861,354.684845 
	C305.718689,354.689697 357.211517,354.690460 408.704346,354.696472 
	C410.370178,354.696686 412.052887,354.602570 413.698578,354.798004 
	C418.322266,355.347137 421.903656,358.917267 422.276489,363.183014 
	C422.728210,368.351410 420.049164,372.288239 414.913391,373.501587 
	C412.677307,374.029907 410.301697,374.139618 407.988831,374.144409 
	C385.825958,374.190247 363.662964,374.173004 341.000000,374.174194 
M340.578613,238.648224 
	C349.054108,238.643875 357.534119,238.475906 366.003143,238.707825 
	C369.930389,238.815384 371.309204,237.090088 371.630432,233.516861 
	C372.164551,227.575577 372.890015,221.650970 373.575012,215.723984 
	C373.894440,212.959976 373.240936,211.252365 369.957092,211.275452 
	C358.490906,211.356049 347.023682,211.339371 335.557220,211.283020 
	C332.690979,211.268921 331.248047,212.309052 331.290253,215.358063 
	C331.379883,221.837997 331.378601,228.321182 331.275696,234.800842 
	C331.231537,237.580292 332.375885,238.780167 335.123596,238.636398 
	C336.614655,238.558365 338.114014,238.639542 340.578613,238.648224 
M226.899857,212.140625 
	C226.526901,220.710999 229.639832,228.660614 231.370148,236.850906 
	C231.820969,238.984802 233.923126,238.622147 235.541214,238.626556 
	C245.843674,238.654633 256.146912,238.582062 266.448364,238.688980 
	C269.647217,238.722168 271.082520,237.570557 270.709534,234.287064 
	C269.960968,227.697845 269.299133,221.098816 268.589081,214.505173 
	C268.351959,212.303329 267.039337,211.312515 264.886261,211.330719 
	C252.436111,211.435989 239.985977,211.543503 226.899857,212.140625 
M425.621185,212.958359 
	C424.752289,210.942398 422.909485,211.304092 421.311981,211.298828 
	C410.488495,211.263153 399.662354,211.417374 388.842529,211.216507 
	C384.779999,211.141098 383.686432,213.198517 383.364197,216.627167 
	C382.820374,222.414108 382.194244,228.195526 381.466736,233.962097 
	C381.083191,237.002411 381.732300,238.703629 385.284302,238.664917 
	C395.773529,238.550598 406.264954,238.607254 416.755249,238.655991 
	C419.233276,238.667511 421.041626,237.848145 421.528503,235.275513 
	C422.886902,228.097839 425.136261,221.094620 425.621185,212.958359 
M320.864471,234.148422 
	C320.859192,227.996017 320.764252,221.841827 320.885620,215.691925 
	C320.948395,212.509247 319.711945,211.227722 316.487213,211.258789 
	C305.347412,211.366089 294.205872,211.338531 283.065308,211.287247 
	C280.054779,211.273392 278.805664,212.573502 279.132629,215.556000 
	C279.837524,221.986465 280.569427,228.415771 281.127808,234.859634 
	C281.361786,237.559692 282.580292,238.658646 285.246155,238.645004 
	C295.887756,238.590561 306.529846,238.605881 317.171661,238.626907 
	C319.623138,238.631744 320.921234,237.575485 320.864471,234.148422 
M341.551849,275.719177 
	C348.540436,275.715393 355.531586,275.599213 362.516449,275.758789 
	C365.659760,275.830597 367.163452,274.483826 367.494995,271.536499 
	C368.218750,265.101990 368.917236,258.664612 369.623657,252.228149 
	C369.889160,249.809052 369.042908,248.401596 366.370941,248.411774 
	C356.055206,248.451035 345.739105,248.412003 335.423584,248.474808 
	C332.649109,248.491699 331.200836,249.860016 331.283936,252.855164 
	C331.408478,257.344116 331.259277,261.839905 331.302979,266.332031 
	C331.404633,276.771881 330.005280,275.625397 341.551849,275.719177 
M259.494476,275.732391 
	C262.994263,275.729218 266.505341,275.548706 269.990784,275.770569 
	C273.794128,276.012665 275.116547,274.414703 274.679443,270.765198 
	C273.927917,264.491180 273.253052,258.206635 272.656403,251.916031 
	C272.384003,249.044250 270.611542,248.402161 268.184601,248.406311 
	C258.185608,248.423386 248.186523,248.406601 238.187775,248.461395 
	C236.902542,248.468430 235.481857,248.394913 234.020432,250.211655 
	C235.555252,257.501587 237.170135,265.274689 238.839630,273.036041 
	C239.314117,275.241791 240.951233,275.745667 242.998581,275.726074 
	C248.164337,275.676788 253.331009,275.723511 259.494476,275.732391 
M413.693939,272.225220 
	C415.290741,264.526794 416.887512,256.828369 418.639221,248.383148 
	C407.066376,248.383148 396.446930,248.569458 385.839630,248.292175 
	C381.550018,248.180054 379.804321,249.850815 379.433777,253.874405 
	C378.886169,259.820557 378.227356,265.759308 377.464935,271.681763 
	C377.049500,274.909180 378.555084,275.756348 381.440094,275.733307 
	C390.581848,275.660309 399.724579,275.697571 408.866852,275.718323 
	C410.975433,275.723114 412.914398,275.538208 413.693939,272.225220 
M320.862915,267.398376 
	C320.866638,263.244965 320.605347,259.069885 320.942688,254.943756 
	C321.344971,250.022705 319.703339,248.061249 314.532928,248.288803 
	C306.242096,248.653671 297.923187,248.346390 289.616974,248.418884 
	C287.364777,248.438538 284.976288,248.050781 282.642059,249.731842 
	C283.427002,256.891602 284.343323,264.116058 284.959137,271.366058 
	C285.247833,274.764709 286.751465,275.848816 290.051178,275.774872 
	C297.855652,275.599884 305.666718,275.724701 313.475128,275.719452 
	C320.818665,275.714539 320.818665,275.709534 320.862915,267.398376 
M333.164520,286.355072 
	C331.046600,287.071136 331.332367,288.889008 331.323730,290.510345 
	C331.291931,296.493927 331.446899,302.482117 331.256134,308.459808 
	C331.141968,312.037842 332.743835,313.091187 336.039032,313.040009 
	C343.350616,312.926392 350.668884,312.881500 357.977356,313.075653 
	C362.111664,313.185516 363.499390,311.284454 363.733643,307.428741 
	C364.045044,302.302490 364.584381,297.168213 365.420074,292.102417 
	C366.114838,287.890839 365.189758,285.935394 360.457092,286.085938 
	C351.656525,286.365845 342.841766,286.198669 333.164520,286.355072 
M398.470398,286.142426 
	C392.823151,286.145721 387.160431,286.407074 381.533539,286.070160 
	C377.091217,285.804138 375.690826,287.918732 375.366852,291.822815 
	C374.887268,297.601807 374.293457,303.374786 373.578583,309.129242 
	C373.260681,311.688690 374.090576,312.972351 376.684296,312.976135 
	C385.154510,312.988495 393.624756,313.001556 402.094849,312.970215 
	C403.691223,312.964325 405.114410,312.394226 405.492889,310.636871 
	C407.189362,302.760345 408.830719,294.871948 410.531952,286.798004 
	C406.383514,285.720917 402.893433,286.296692 398.470398,286.142426 
M277.987793,303.231628 
	C277.553162,298.928131 276.971191,294.632721 276.734863,290.318390 
	C276.573090,287.364716 275.286865,286.149841 272.396484,286.165802 
	C263.733307,286.213684 255.069077,286.233398 246.406540,286.142242 
	C243.099503,286.107452 241.811310,287.376923 242.545624,290.694794 
	C243.911118,296.864471 245.190582,303.053345 246.485672,309.238403 
	C246.992554,311.659149 248.237457,313.031311 250.915176,313.011108 
	C258.911774,312.950714 266.909332,312.970734 274.906158,313.015656 
	C277.645721,313.031067 278.941467,311.826416 278.673615,309.062592 
	C278.513397,307.409363 278.332977,305.758087 277.987793,303.231628 
M287.447418,297.102753 
	C288.006958,301.211853 288.641296,305.312683 289.097443,309.433228 
	C289.364319,311.843994 290.475555,312.998077 292.936310,312.990448 
	C300.919525,312.965607 308.902924,312.994598 316.886200,313.017334 
	C319.188965,313.023926 320.801514,312.276855 320.800110,309.639252 
	C320.796570,302.820923 320.802124,296.002533 320.779388,289.184265 
	C320.773529,287.425171 319.892517,286.278809 318.080719,286.272034 
	C307.826141,286.233704 297.571411,286.253510 286.917114,286.253510 
	C287.092255,289.998871 287.237427,293.102936 287.447418,297.102753 
z"/>
<path fill="#000000" opacity="1.000000" stroke="none" 
	d="
M263.148438,391.565308 
	C280.288147,395.014557 290.341980,409.041595 288.245483,426.044830 
	C286.464874,440.486206 272.839722,451.952545 257.774536,451.687836 
	C241.775620,451.406708 228.772858,438.777832 227.802383,422.577576 
	C226.688095,403.976471 244.355637,388.261383 263.148438,391.565308 
M247.999023,417.680634 
	C244.503326,427.025726 254.149109,433.585846 260.095490,432.247742 
	C265.188690,431.101654 268.913391,426.912323 269.179718,421.792572 
	C269.436646,416.852386 266.270477,412.415619 261.413574,410.909943 
	C256.221313,409.300232 251.592300,411.433777 247.999023,417.680634 
z"/>
<path fill="#000000" opacity="1.000000" stroke="none" 
	d="
M413.175354,425.547302 
	C409.528595,446.294800 388.470520,457.093811 370.550476,449.007172 
	C356.921173,442.856689 349.768188,427.230530 353.961517,412.811615 
	C357.947205,399.106689 372.143127,389.329895 385.489380,391.098145 
	C402.014740,393.287628 413.203003,405.354309 413.308502,421.114136 
	C413.317413,422.444611 413.255829,423.775543 413.175354,425.547302 
M386.978943,431.559448 
	C394.445282,429.165375 395.897644,418.643555 391.030945,413.833710 
	C387.124603,409.973022 381.458313,409.245239 376.943878,412.246490 
	C372.598907,415.135071 370.954590,420.474579 372.888794,425.414581 
	C375.006500,430.823212 379.875000,433.133972 386.978943,431.559448 
z"/>
</svg>